<svg width="201" height="60" viewBox="0 0 201 60" fill="none" xmlns="http://www.w3.org/2000/svg">
<rect x="1.21709" y="1.21709" width="198.566" height="56.7759" rx="28.388" fill="white"/>
<rect x="1.21709" y="1.21709" width="198.566" height="56.7759" rx="28.388" stroke="#EFEFEF" stroke-width="2.43417"/>
<path fill-rule="evenodd" clip-rule="evenodd" d="M53.7728 38.3193C54.4909 37.2239 54.7587 36.6641 55.3064 35.4348C51.2656 33.9013 50.6206 28.1444 54.6126 25.9415C53.3956 24.408 51.6795 23.5195 50.0607 23.5195C48.8923 23.5195 48.089 23.8238 47.371 24.1037C46.7624 24.335 46.2147 24.5419 45.5332 24.5419C44.8029 24.5419 44.1579 24.3107 43.4763 24.0672C42.7339 23.7995 41.9549 23.5195 40.9813 23.5195C39.1678 23.5195 37.2326 24.6271 36.0034 26.5257C34.2751 29.2033 34.5794 34.2177 37.3665 38.5019C38.3645 40.0354 39.7033 41.7515 41.4438 41.7758C42.174 41.788 42.6487 41.5689 43.172 41.3377C43.7684 41.0699 44.4134 40.7778 45.5453 40.7778C46.6772 40.7656 47.3101 41.0699 47.9065 41.3377C48.4177 41.5689 48.8802 41.788 49.5982 41.7758C51.363 41.7515 52.7748 39.8528 53.7728 38.3193Z" fill="black"/>
<path fill-rule="evenodd" clip-rule="evenodd" d="M49.8053 17.4341C50.0001 18.7729 49.4524 20.0995 48.7343 21.0245C47.9675 22.0225 46.6287 22.8014 45.3386 22.7527C45.1074 21.4626 45.7038 20.136 46.434 19.2475C47.2495 18.2739 48.6248 17.5193 49.8053 17.4341Z" fill="black"/>
<path d="M73.968 34.605H70.3586V24.4232H73.9978C75.0219 24.4232 75.9036 24.627 76.6427 25.0347C77.3818 25.439 77.9502 26.0207 78.3479 26.7797C78.749 27.5387 78.9495 28.4468 78.9495 29.5041C78.9495 30.5647 78.749 31.4762 78.3479 32.2385C77.9502 33.0008 77.3785 33.5858 76.6327 33.9935C75.8903 34.4011 75.002 34.605 73.968 34.605ZM72.5113 32.7605H73.8785C74.5148 32.7605 75.0501 32.6478 75.4843 32.4225C75.9218 32.1938 76.2499 31.8408 76.4687 31.3635C76.6907 30.8829 76.8018 30.2631 76.8018 29.5041C76.8018 28.7518 76.6907 28.1369 76.4687 27.6597C76.2499 27.1824 75.9234 26.8311 75.4893 26.6057C75.0551 26.3803 74.5198 26.2676 73.8834 26.2676H72.5113V32.7605ZM83.8146 34.7541C83.0424 34.7541 82.3745 34.5901 81.8111 34.2619C81.251 33.9305 80.8184 33.4698 80.5135 32.8798C80.2086 32.2866 80.0561 31.5988 80.0561 30.8166C80.0561 30.0278 80.2086 29.3384 80.5135 28.7484C80.8184 28.1552 81.251 27.6945 81.8111 27.3663C82.3745 27.0349 83.0424 26.8692 83.8146 26.8692C84.5869 26.8692 85.2531 27.0349 85.8132 27.3663C86.3767 27.6945 86.8108 28.1552 87.1158 28.7484C87.4207 29.3384 87.5732 30.0278 87.5732 30.8166C87.5732 31.5988 87.4207 32.2866 87.1158 32.8798C86.8108 33.4698 86.3767 33.9305 85.8132 34.2619C85.2531 34.5901 84.5869 34.7541 83.8146 34.7541ZM83.8246 33.1135C84.1759 33.1135 84.4692 33.0141 84.7045 32.8152C84.9399 32.613 85.1172 32.3379 85.2365 31.9899C85.3591 31.6419 85.4205 31.2458 85.4205 30.8017C85.4205 30.3576 85.3591 29.9615 85.2365 29.6135C85.1172 29.2655 84.9399 28.9904 84.7045 28.7882C84.4692 28.586 84.1759 28.485 83.8246 28.485C83.4699 28.485 83.1716 28.586 82.9297 28.7882C82.6911 28.9904 82.5104 29.2655 82.3878 29.6135C82.2685 29.9615 82.2088 30.3576 82.2088 30.8017C82.2088 31.2458 82.2685 31.6419 82.3878 31.9899C82.5104 32.3379 82.6911 32.613 82.9297 32.8152C83.1716 33.0141 83.4699 33.1135 83.8246 33.1135ZM90.1253 34.605L88.0471 26.9686H90.1899L91.3731 32.0993H91.4427L92.6757 26.9686H94.7787L96.0315 32.0695H96.0962L97.2595 26.9686H99.3973L97.3241 34.605H95.0819L93.7694 29.8024H93.675L92.3625 34.605H90.1253ZM102.505 30.1902V34.605H100.387V26.9686H102.406V28.3159H102.495C102.664 27.8718 102.947 27.5205 103.345 27.2619C103.743 27.0001 104.225 26.8692 104.792 26.8692C105.322 26.8692 105.785 26.9852 106.179 27.2172C106.573 27.4492 106.88 27.7806 107.099 28.2115C107.317 28.6391 107.427 29.1495 107.427 29.7428V34.605H105.309V30.1206C105.312 29.6533 105.193 29.2887 104.951 29.0269C104.709 28.7617 104.376 28.6291 103.952 28.6291C103.667 28.6291 103.415 28.6904 103.196 28.8131C102.981 28.9357 102.812 29.1147 102.689 29.35C102.57 29.582 102.508 29.8621 102.505 30.1902ZM111.074 24.4232V34.605H108.956V24.4232H111.074ZM116.081 34.7541C115.309 34.7541 114.641 34.5901 114.077 34.2619C113.517 33.9305 113.085 33.4698 112.78 32.8798C112.475 32.2866 112.322 31.5988 112.322 30.8166C112.322 30.0278 112.475 29.3384 112.78 28.7484C113.085 28.1552 113.517 27.6945 114.077 27.3663C114.641 27.0349 115.309 26.8692 116.081 26.8692C116.853 26.8692 117.519 27.0349 118.079 27.3663C118.643 27.6945 119.077 28.1552 119.382 28.7484C119.687 29.3384 119.839 30.0278 119.839 30.8166C119.839 31.5988 119.687 32.2866 119.382 32.8798C119.077 33.4698 118.643 33.9305 118.079 34.2619C117.519 34.5901 116.853 34.7541 116.081 34.7541ZM116.091 33.1135C116.442 33.1135 116.735 33.0141 116.971 32.8152C117.206 32.613 117.383 32.3379 117.503 31.9899C117.625 31.6419 117.687 31.2458 117.687 30.8017C117.687 30.3576 117.625 29.9615 117.503 29.6135C117.383 29.2655 117.206 28.9904 116.971 28.7882C116.735 28.586 116.442 28.485 116.091 28.485C115.736 28.485 115.438 28.586 115.196 28.7882C114.957 28.9904 114.777 29.2655 114.654 29.6135C114.535 29.9615 114.475 30.3576 114.475 30.8017C114.475 31.2458 114.535 31.6419 114.654 31.9899C114.777 32.3379 114.957 32.613 115.196 32.8152C115.438 33.0141 115.736 33.1135 116.091 33.1135ZM123.254 34.7492C122.767 34.7492 122.333 34.6646 121.951 34.4956C121.57 34.3233 121.269 34.0697 121.047 33.735C120.828 33.3969 120.719 32.976 120.719 32.4722C120.719 32.0479 120.796 31.6916 120.952 31.4033C121.108 31.1149 121.32 30.8829 121.589 30.7073C121.857 30.5316 122.162 30.399 122.503 30.3095C122.848 30.22 123.209 30.1571 123.587 30.1206C124.031 30.0742 124.389 30.0311 124.661 29.9913C124.933 29.9483 125.13 29.8853 125.253 29.8024C125.375 29.7196 125.437 29.5969 125.437 29.4345V29.4047C125.437 29.0898 125.337 28.8462 125.138 28.6739C124.943 28.5015 124.664 28.4153 124.303 28.4153C123.922 28.4153 123.619 28.4999 123.393 28.6689C123.168 28.8346 123.019 29.0434 122.946 29.2953L120.987 29.1362C121.086 28.6722 121.282 28.2712 121.574 27.9331C121.865 27.5917 122.241 27.3299 122.702 27.1476C123.166 26.962 123.703 26.8692 124.313 26.8692C124.737 26.8692 125.143 26.9189 125.531 27.0183C125.922 27.1178 126.268 27.2719 126.57 27.4807C126.875 27.6895 127.115 27.958 127.291 28.2861C127.467 28.6109 127.554 29.0003 127.554 29.4544V34.605H125.546V33.546H125.486C125.364 33.7847 125.2 33.9951 124.994 34.1774C124.789 34.3564 124.542 34.4973 124.253 34.6C123.965 34.6994 123.632 34.7492 123.254 34.7492ZM123.861 33.2875C124.172 33.2875 124.447 33.2262 124.686 33.1036C124.924 32.9776 125.112 32.8086 125.248 32.5965C125.384 32.3843 125.451 32.144 125.451 31.8756V31.0652C125.385 31.1083 125.294 31.1481 125.178 31.1845C125.065 31.2177 124.938 31.2492 124.795 31.279C124.653 31.3055 124.51 31.3304 124.368 31.3536C124.225 31.3734 124.096 31.3917 123.98 31.4082C123.731 31.4447 123.514 31.5027 123.329 31.5823C123.143 31.6618 122.999 31.7695 122.896 31.9054C122.793 32.038 122.742 32.2037 122.742 32.4026C122.742 32.6909 122.846 32.9113 123.055 33.0638C123.267 33.2129 123.536 33.2875 123.861 33.2875ZM131.871 34.7293C131.291 34.7293 130.766 34.5801 130.295 34.2818C129.828 33.9802 129.457 33.5377 129.182 32.9544C128.91 32.3678 128.774 31.6485 128.774 30.7967C128.774 29.9217 128.915 29.1942 129.197 28.6142C129.478 28.0309 129.853 27.595 130.32 27.3067C130.791 27.015 131.306 26.8692 131.867 26.8692C132.294 26.8692 132.65 26.9421 132.935 27.0879C133.224 27.2305 133.456 27.4094 133.631 27.6249C133.81 27.837 133.946 28.0458 134.039 28.2513H134.104V24.4232H136.217V34.605H134.129V33.382H134.039C133.94 33.5941 133.799 33.8046 133.617 34.0134C133.438 34.2189 133.204 34.3895 132.916 34.5254C132.63 34.6613 132.282 34.7293 131.871 34.7293ZM132.543 33.0439C132.884 33.0439 133.172 32.9511 133.408 32.7655C133.646 32.5766 133.829 32.3131 133.955 31.975C134.084 31.6369 134.148 31.2409 134.148 30.7868C134.148 30.3327 134.085 29.9383 133.96 29.6036C133.834 29.2688 133.651 29.0103 133.413 28.828C133.174 28.6457 132.884 28.5546 132.543 28.5546C132.195 28.5546 131.901 28.649 131.663 28.8379C131.424 29.0269 131.243 29.2887 131.121 29.6234C130.998 29.9582 130.937 30.346 130.937 30.7868C130.937 31.2309 130.998 31.6237 131.121 31.9651C131.247 32.3031 131.427 32.5683 131.663 32.7605C131.901 32.9494 132.195 33.0439 132.543 33.0439ZM149.474 24.4232V34.605H147.615L143.185 28.1966H143.111V34.605H140.958V24.4232H142.847L147.242 30.8266H147.332V24.4232H149.474ZM154.523 34.7541C153.751 34.7541 153.083 34.5901 152.52 34.2619C151.96 33.9305 151.527 33.4698 151.222 32.8798C150.917 32.2866 150.765 31.5988 150.765 30.8166C150.765 30.0278 150.917 29.3384 151.222 28.7484C151.527 28.1552 151.96 27.6945 152.52 27.3663C153.083 27.0349 153.751 26.8692 154.523 26.8692C155.296 26.8692 155.962 27.0349 156.522 27.3663C157.085 27.6945 157.52 28.1552 157.825 28.7484C158.129 29.3384 158.282 30.0278 158.282 30.8166C158.282 31.5988 158.129 32.2866 157.825 32.8798C157.52 33.4698 157.085 33.9305 156.522 34.2619C155.962 34.5901 155.296 34.7541 154.523 34.7541ZM154.533 33.1135C154.885 33.1135 155.178 33.0141 155.413 32.8152C155.649 32.613 155.826 32.3379 155.945 31.9899C156.068 31.6419 156.129 31.2458 156.129 30.8017C156.129 30.3576 156.068 29.9615 155.945 29.6135C155.826 29.2655 155.649 28.9904 155.413 28.7882C155.178 28.586 154.885 28.485 154.533 28.485C154.179 28.485 153.88 28.586 153.638 28.7882C153.4 28.9904 153.219 29.2655 153.097 29.6135C152.977 29.9615 152.918 30.3576 152.918 30.8017C152.918 31.2458 152.977 31.6419 153.097 31.9899C153.219 32.3379 153.4 32.613 153.638 32.8152C153.88 33.0141 154.179 33.1135 154.533 33.1135ZM160.834 34.605L158.756 26.9686H160.899L162.082 32.0993H162.151L163.384 26.9686H165.487L166.74 32.0695H166.805L167.968 26.9686H170.106L168.033 34.605H165.791L164.478 29.8024H164.384L163.071 34.605H160.834Z" fill="#1A1D1F"/>
</svg>
