<svg width="126" height="39" viewBox="0 0 126 39" fill="none" xmlns="http://www.w3.org/2000/svg">
<path d="M45.5202 19.4258H42.7428V15.2034C42.7428 14.7432 42.8766 14.3793 43.1441 14.1117C43.4117 13.8441 43.7756 13.7103 44.2359 13.7103C44.4927 13.7103 44.7389 13.7264 44.9744 13.7585C45.2205 13.7906 45.4025 13.8227 45.5202 13.8548V19.4258ZM44.2037 19.9877V17.7722H49.0362C49.1111 17.8899 49.1807 18.0451 49.2449 18.2377C49.3091 18.4197 49.3412 18.6231 49.3412 18.8478C49.3412 19.2438 49.2503 19.5328 49.0683 19.7148C48.8971 19.8967 48.6616 19.9877 48.3619 19.9877H44.2037ZM44.2359 15.958V13.7103H49.5821C49.657 13.8281 49.7212 13.9833 49.7747 14.1759C49.8389 14.3686 49.871 14.5773 49.871 14.802C49.871 15.1981 49.7801 15.4924 49.5981 15.685C49.4269 15.867 49.1914 15.958 48.8917 15.958H44.2359ZM42.7428 18.7354H45.5523V23.4234C45.4346 23.4555 45.2527 23.4876 45.0065 23.5197C44.7603 23.5518 44.5088 23.5679 44.2519 23.5679C43.6953 23.5679 43.3047 23.4716 43.0799 23.2789C42.8552 23.0755 42.7428 22.7277 42.7428 22.2354V18.7354ZM50.7495 20.3409V19.2813H53.4788V20.3409C53.4788 20.769 53.5859 21.0794 53.7999 21.2721C54.0247 21.4647 54.3351 21.5611 54.7311 21.5611C54.9773 21.5611 55.1806 21.5397 55.3412 21.4968C55.5017 21.454 55.6195 21.4112 55.6944 21.3684V19.2813H58.4237V21.7698C58.4237 22.0373 58.3648 22.2728 58.2471 22.4762C58.14 22.6688 57.9741 22.8347 57.7494 22.9739C57.3748 23.2093 56.9252 23.3859 56.4008 23.5037C55.887 23.6321 55.3251 23.6963 54.715 23.6963C53.9444 23.6963 53.2594 23.5839 52.66 23.3592C52.0607 23.1237 51.5897 22.7598 51.2472 22.2675C50.9154 21.7751 50.7495 21.1329 50.7495 20.3409ZM58.4237 19.9716H55.6944V15.669C55.8121 15.6369 55.978 15.6048 56.1921 15.5727C56.4168 15.5406 56.6577 15.5245 56.9145 15.5245C57.4497 15.5245 57.835 15.6155 58.0705 15.7974C58.3059 15.9687 58.4237 16.3058 58.4237 16.8089V19.9716ZM53.4788 19.9716H50.7495V15.669C50.8673 15.6369 51.0332 15.6048 51.2472 15.5727C51.472 15.5406 51.7128 15.5245 51.9697 15.5245C52.5048 15.5245 52.8902 15.6155 53.1256 15.7974C53.3611 15.9687 53.4788 16.3058 53.4788 16.8089V19.9716ZM62.8232 17.9327V19.7629H60.0939V17.5153C60.0939 17.2049 60.1741 16.9373 60.3347 16.7125C60.5059 16.4771 60.7253 16.2737 60.9929 16.1025C61.3675 15.8777 61.8064 15.7065 62.3094 15.5887C62.8124 15.471 63.3315 15.4121 63.8667 15.4121C65.0333 15.4121 65.6167 15.8242 65.6167 16.6483C65.6167 16.841 65.5899 17.0229 65.5364 17.1942C65.4829 17.3547 65.4187 17.4939 65.3437 17.6116C65.2367 17.5902 65.1083 17.5741 64.9584 17.5634C64.8086 17.5527 64.6427 17.5474 64.4607 17.5474C64.1931 17.5474 63.9095 17.5795 63.6098 17.6437C63.3101 17.7079 63.0479 17.8043 62.8232 17.9327ZM60.0939 19.201H62.8232V23.4234C62.7054 23.4555 62.5342 23.4876 62.3094 23.5197C62.0953 23.5518 61.8599 23.5679 61.603 23.5679C61.0785 23.5679 60.6932 23.4769 60.4471 23.295C60.2116 23.113 60.0939 22.7759 60.0939 22.2835V19.201ZM69.8893 21.4487C70.4138 21.4487 70.783 21.363 70.9971 21.1918C71.2112 21.0205 71.3182 20.8279 71.3182 20.6138C71.3182 20.3998 71.2326 20.2339 71.0613 20.1161C70.8901 19.9877 70.6493 19.87 70.3389 19.7629L69.6646 19.5382C69.0438 19.3241 68.4926 19.0993 68.0109 18.8639C67.54 18.6177 67.1707 18.302 66.9032 17.9166C66.6356 17.5313 66.5018 17.0283 66.5018 16.4075C66.5018 15.4977 66.8497 14.7699 67.5454 14.2241C68.2518 13.6782 69.2364 13.4053 70.4994 13.4053C71.1202 13.4053 71.6714 13.4642 72.153 13.5819C72.6347 13.6996 73.0146 13.8816 73.2929 14.1277C73.5712 14.3632 73.7104 14.6683 73.7104 15.0429C73.7104 15.3104 73.6461 15.5459 73.5177 15.7493C73.3893 15.9526 73.2341 16.1239 73.0521 16.263C72.8166 16.1132 72.5009 15.9847 72.1049 15.8777C71.7089 15.76 71.2754 15.7011 70.8045 15.7011C70.3228 15.7011 69.9696 15.7707 69.7448 15.9098C69.5201 16.0382 69.4077 16.2041 69.4077 16.4075C69.4077 16.5681 69.4773 16.7018 69.6164 16.8089C69.7663 16.9052 69.975 16.9962 70.2425 17.0818L71.0934 17.3547C72.1102 17.6758 72.8862 18.0932 73.4214 18.607C73.9565 19.11 74.2241 19.7897 74.2241 20.6459C74.2241 21.5557 73.8602 22.2996 73.1324 22.8775C72.4153 23.4448 71.3664 23.7284 69.9857 23.7284C69.3328 23.7284 68.7441 23.6589 68.2197 23.5197C67.6952 23.3806 67.2778 23.1719 66.9674 22.8936C66.657 22.6153 66.5018 22.2782 66.5018 21.8822C66.5018 21.5718 66.5928 21.3095 66.7747 21.0955C66.9567 20.8707 67.1547 20.6995 67.3688 20.5817C67.6684 20.8172 68.0323 21.0205 68.4605 21.1918C68.8993 21.363 69.3756 21.4487 69.8893 21.4487ZM79.5198 23.6803C79.1344 23.6803 78.7919 23.6375 78.4923 23.5518C78.2033 23.4662 77.9303 23.3645 77.6735 23.2468V20.967C77.8554 21.1062 78.0641 21.2346 78.2996 21.3523C78.5351 21.4701 78.8027 21.5289 79.1023 21.5289C79.6375 21.5289 80.0442 21.3577 80.3225 21.0152C80.6115 20.662 80.756 20.1536 80.756 19.49C80.756 19.0298 80.6971 18.6605 80.5794 18.3822C80.4616 18.0932 80.285 17.8792 80.0496 17.74C79.8248 17.6009 79.5412 17.5313 79.1987 17.5313C78.9953 17.5313 78.808 17.5581 78.6368 17.6116C78.4655 17.6544 78.321 17.7079 78.2033 17.7722V22.5564H75.49V17.3387C75.49 17.0497 75.5489 16.8089 75.6666 16.6162C75.7951 16.4236 75.9663 16.2577 76.1804 16.1185C76.5122 15.9045 76.9403 15.7332 77.4648 15.6048C77.9892 15.4656 78.5672 15.3961 79.1987 15.3961C80.0656 15.3961 80.8255 15.5406 81.4784 15.8295C82.1313 16.1078 82.6397 16.552 83.0036 17.1621C83.3675 17.7615 83.5495 18.5374 83.5495 19.49C83.5495 20.3998 83.3729 21.165 83.0197 21.7858C82.6665 22.4066 82.1848 22.8775 81.5748 23.1986C80.9754 23.5197 80.2904 23.6803 79.5198 23.6803ZM78.2193 21.8982V26.2972C78.1016 26.3293 77.9303 26.3614 77.7056 26.3935C77.4915 26.4256 77.2561 26.4417 76.9992 26.4417C76.4747 26.4417 76.0894 26.3507 75.8432 26.1687C75.6078 25.9868 75.49 25.6496 75.49 25.1573V21.8982H78.2193ZM92.5876 20.1482H89.8583V18.7194C89.8583 18.2806 89.746 17.9755 89.5212 17.8043C89.3071 17.6223 89.0395 17.5313 88.7185 17.5313C88.3974 17.5313 88.1137 17.5902 87.8676 17.7079C87.6214 17.8257 87.4073 17.9541 87.2254 18.0932V15.8938C87.4715 15.7653 87.7659 15.6529 88.1084 15.5566C88.4509 15.4496 88.8255 15.3961 89.2322 15.3961C90.2811 15.3961 91.0999 15.6636 91.6886 16.1988C92.2879 16.7232 92.5876 17.5099 92.5876 18.5588V20.1482ZM84.9135 19.201H87.6428V23.4234C87.5251 23.4555 87.3538 23.4876 87.129 23.5197C86.915 23.5518 86.6795 23.5679 86.4226 23.5679C85.8982 23.5679 85.5129 23.4769 85.2667 23.295C85.0312 23.113 84.9135 22.7759 84.9135 22.2835V19.201ZM89.8583 19.201H92.5876V23.4234C92.4699 23.4555 92.2986 23.4876 92.0739 23.5197C91.8598 23.5518 91.6244 23.5679 91.3675 23.5679C90.843 23.5679 90.4577 23.4769 90.2115 23.295C89.9761 23.113 89.8583 22.7759 89.8583 22.2835V19.201ZM87.6428 20.6299H84.9135V12.9718C85.0312 12.9397 85.1971 12.9076 85.4112 12.8755C85.636 12.8434 85.8768 12.8273 86.1337 12.8273C86.6688 12.8273 87.0541 12.9183 87.2896 13.1002C87.5251 13.2715 87.6428 13.6086 87.6428 14.1117V20.6299ZM95.5892 20.7583L95.4929 18.9602L99.2015 18.3501C99.1801 18.1361 99.0731 17.922 98.8804 17.7079C98.6878 17.4939 98.3881 17.3868 97.9814 17.3868C97.5532 17.3868 97.1947 17.526 96.9057 17.8043C96.6274 18.0825 96.4776 18.4786 96.4562 18.9923L96.5525 20.3409C96.6595 20.8332 96.9004 21.1757 97.275 21.3684C97.6603 21.5611 98.0884 21.6574 98.5593 21.6574C99.0089 21.6574 99.437 21.5985 99.8437 21.4808C100.25 21.363 100.577 21.2346 100.823 21.0955C100.994 21.2025 101.139 21.3523 101.257 21.545C101.374 21.7377 101.433 21.941 101.433 22.1551C101.433 22.5083 101.299 22.8026 101.032 23.0381C100.775 23.2629 100.416 23.4288 99.9561 23.5358C99.4959 23.6428 98.9661 23.6963 98.3667 23.6963C97.5318 23.6963 96.7773 23.5411 96.103 23.2307C95.4394 22.9096 94.9096 22.4334 94.5136 21.8019C94.1283 21.1704 93.9356 20.3784 93.9356 19.4258C93.9356 18.7194 94.048 18.1093 94.2727 17.5956C94.5082 17.0818 94.8186 16.6644 95.2039 16.3433C95.5892 16.0222 96.0174 15.7867 96.4883 15.6369C96.9699 15.4763 97.4623 15.3961 97.9653 15.3961C98.7252 15.3961 99.3888 15.5459 99.9561 15.8456C100.523 16.1346 100.968 16.5359 101.289 17.0497C101.61 17.5527 101.77 18.1361 101.77 18.7997C101.77 19.1636 101.669 19.4418 101.465 19.6345C101.262 19.8272 100.978 19.9502 100.614 20.0038L95.5892 20.7583ZM105.813 17.9327V19.7629H103.084V17.5153C103.084 17.2049 103.164 16.9373 103.325 16.7125C103.496 16.4771 103.715 16.2737 103.983 16.1025C104.358 15.8777 104.796 15.7065 105.3 15.5887C105.803 15.471 106.322 15.4121 106.857 15.4121C108.023 15.4121 108.607 15.8242 108.607 16.6483C108.607 16.841 108.58 17.0229 108.527 17.1942C108.473 17.3547 108.409 17.4939 108.334 17.6116C108.227 17.5902 108.098 17.5741 107.949 17.5634C107.799 17.5527 107.633 17.5474 107.451 17.5474C107.183 17.5474 106.9 17.5795 106.6 17.6437C106.3 17.7079 106.038 17.8043 105.813 17.9327ZM103.084 19.201H105.813V23.4234C105.696 23.4555 105.524 23.4876 105.3 23.5197C105.085 23.5518 104.85 23.5679 104.593 23.5679C104.069 23.5679 103.683 23.4769 103.437 23.295C103.202 23.113 103.084 22.7759 103.084 22.2835V19.201ZM110.703 20.7583L110.607 18.9602L114.315 18.3501C114.294 18.1361 114.187 17.922 113.994 17.7079C113.802 17.4939 113.502 17.3868 113.095 17.3868C112.667 17.3868 112.309 17.526 112.02 17.8043C111.741 18.0825 111.592 18.4786 111.57 18.9923L111.666 20.3409C111.774 20.8332 112.014 21.1757 112.389 21.3684C112.774 21.5611 113.202 21.6574 113.673 21.6574C114.123 21.6574 114.551 21.5985 114.958 21.4808C115.364 21.363 115.691 21.2346 115.937 21.0955C116.108 21.2025 116.253 21.3523 116.37 21.545C116.488 21.7377 116.547 21.941 116.547 22.1551C116.547 22.5083 116.413 22.8026 116.146 23.0381C115.889 23.2629 115.53 23.4288 115.07 23.5358C114.61 23.6428 114.08 23.6963 113.481 23.6963C112.646 23.6963 111.891 23.5411 111.217 23.2307C110.553 22.9096 110.024 22.4334 109.628 21.8019C109.242 21.1704 109.05 20.3784 109.05 19.4258C109.05 18.7194 109.162 18.1093 109.387 17.5956C109.622 17.0818 109.933 16.6644 110.318 16.3433C110.703 16.0222 111.131 15.7867 111.602 15.6369C112.084 15.4763 112.576 15.3961 113.079 15.3961C113.839 15.3961 114.503 15.5459 115.07 15.8456C115.637 16.1346 116.082 16.5359 116.403 17.0497C116.724 17.5527 116.884 18.1361 116.884 18.7997C116.884 19.1636 116.783 19.4418 116.579 19.6345C116.376 19.8272 116.092 19.9502 115.728 20.0038L110.703 20.7583Z" fill="white"/>
<path d="M11.7004 16.9528C12.6982 12.0161 17.0702 8.28642 22.2975 8.28642C26.3266 8.28642 28.3475 9.98434 30.1465 11.3196C32.3262 11.242 34.3507 10.9533 35.5687 9.05147C33.0443 8.91073 29.921 5.39941 22.2975 5.39941C14.674 5.39941 8.59863 11.5451 8.59863 19.0982C8.59863 19.9355 8.67442 20.7565 8.81877 21.5522C8.98116 22.4436 9.22836 23.3043 9.55495 24.127C9.77689 24.6882 9.94289 25.0635 10.2352 25.5868C10.6087 24.5529 11.1843 23.4811 12.0251 22.4742C11.6426 21.3682 11.4856 20.3324 11.4856 19.0982C11.4856 18.3639 11.5596 17.6457 11.7004 16.9528Z" fill="url(#paint0_angular_1164_8959)"/>
<path d="M11.7004 16.9528C12.6982 12.0161 17.0702 8.28642 22.2975 8.28642C26.3266 8.28642 28.3475 9.98434 30.1465 11.3196C32.3262 11.242 34.3507 10.9533 35.5687 9.05147C33.0443 8.91073 29.921 5.39941 22.2975 5.39941C14.674 5.39941 8.59863 11.5451 8.59863 19.0982C8.59863 19.9355 8.67442 20.7565 8.81877 21.5522C8.98116 22.4436 9.22836 23.3043 9.55495 24.127C9.77689 24.6882 9.94289 25.0635 10.2352 25.5868C10.6087 24.5529 11.1843 23.4811 12.0251 22.4742C11.6426 21.3682 11.4856 20.3324 11.4856 19.0982C11.4856 18.3639 11.5596 17.6457 11.7004 16.9528Z" fill="url(#paint1_angular_1164_8959)"/>
<path d="M35.455 15.2852C35.7437 16.274 35.9224 17.3079 35.9765 18.3724C35.9891 18.6124 35.9964 18.8542 35.9964 19.0978C35.9964 26.6509 29.8506 32.7966 22.2975 32.7966C18.8872 32.7966 14.4954 29.8501 9.53516 31.3676C11.5001 28.6177 13.3225 28.0114 14.416 27.5333C15.4625 27.1092 17.8118 29.9096 22.2975 29.9096C27.0484 29.9096 31.0921 26.8314 32.541 22.5622C32.9091 21.4742 33.1094 20.3085 33.1094 19.0978C33.1094 18.6503 33.0823 18.2082 33.0282 17.7734C34.0007 17.1346 34.8235 16.3281 35.455 15.2852Z" fill="url(#paint2_angular_1164_8959)"/>
<path d="M14.04 20.7225C19.5037 6.17738 31.7771 14.685 35.5681 9.05176C35.9091 23.1458 21.7808 14.2682 14.0418 20.7225H14.04Z" fill="white"/>
<path d="M9.53418 31.369C13.5273 15.7214 22.311 21.0028 30.1456 18.9404C25.7339 30.7393 15.568 22.7224 9.53418 31.369Z" fill="white"/>
<defs>
<radialGradient id="paint0_angular_1164_8959" cx="0" cy="0" r="1" gradientUnits="userSpaceOnUse" gradientTransform="translate(22.8655 18.9674) rotate(-15.3461) scale(13.1801 22.1819)">
<stop stop-color="#9FBFFF"/>
<stop offset="1" stop-color="#5777D0"/>
</radialGradient>
<radialGradient id="paint1_angular_1164_8959" cx="0" cy="0" r="1" gradientUnits="userSpaceOnUse" gradientTransform="translate(22.8655 18.9674) rotate(-35.657) scale(17.2811 17.1084)">
<stop offset="0.515125" stop-color="#BED4FF"/>
<stop offset="1" stop-color="#82A0F5"/>
</radialGradient>
<radialGradient id="paint2_angular_1164_8959" cx="0" cy="0" r="1" gradientUnits="userSpaceOnUse" gradientTransform="translate(23.5329 27.0546) rotate(-178.791) scale(15.9293 18.2619)">
<stop offset="0.363" stop-color="#BED4FF"/>
<stop offset="1" stop-color="#82A0F5"/>
</radialGradient>
</defs>
</svg>
