<svg width="210" height="64" viewBox="0 0 210 64" fill="none" xmlns="http://www.w3.org/2000/svg">
<path d="M75.8664 33.042H71.2373V26.0047C71.2373 25.2376 71.4603 24.6311 71.9062 24.1852C72.3522 23.7392 72.9587 23.5162 73.7258 23.5162C74.1539 23.5162 74.5642 23.543 74.9566 23.5965C75.3669 23.65 75.6702 23.7035 75.8664 23.757V33.042ZM73.6723 33.9785V30.2859H81.7264C81.8512 30.4822 81.9672 30.7408 82.0742 31.0619C82.1812 31.3652 82.2348 31.7041 82.2348 32.0787C82.2348 32.7387 82.0831 33.2204 81.7799 33.5236C81.4945 33.8269 81.102 33.9785 80.6025 33.9785H73.6723ZM73.7258 27.2623V23.5162H82.6361C82.761 23.7125 82.868 23.9711 82.9572 24.2922C83.0642 24.6133 83.1178 24.9611 83.1178 25.3358C83.1178 25.9958 82.9661 26.4863 82.6629 26.8074C82.3775 27.1107 81.985 27.2623 81.4855 27.2623H73.7258ZM71.2373 31.8914H75.9199V39.7047C75.7237 39.7582 75.4204 39.8117 75.0102 39.8652C74.5999 39.9187 74.1807 39.9455 73.7525 39.9455C72.8249 39.9455 72.1738 39.785 71.7992 39.4639C71.4246 39.1249 71.2373 38.5452 71.2373 37.7246V31.8914ZM84.5819 34.5672V32.8012H89.1307V34.5672C89.1307 35.2807 89.3091 35.7981 89.6659 36.1191C90.0405 36.4402 90.5578 36.6008 91.2178 36.6008C91.6281 36.6008 91.9671 36.5651 92.2346 36.4938C92.5022 36.4224 92.6984 36.351 92.8233 36.2797V32.8012H97.3721V36.9486C97.3721 37.3946 97.274 37.787 97.0778 38.126C96.8994 38.4471 96.6229 38.7236 96.2483 38.9555C95.624 39.3479 94.8747 39.6423 94.0007 39.8385C93.1444 40.0525 92.2079 40.1596 91.1911 40.1596C89.9067 40.1596 88.765 39.9723 87.7661 39.5977C86.7671 39.2052 85.9822 38.5987 85.4114 37.7781C84.8584 36.9576 84.5819 35.8872 84.5819 34.5672ZM97.3721 33.9518H92.8233V26.7807C93.0195 26.7272 93.296 26.6736 93.6528 26.6201C94.0274 26.5666 94.4288 26.5399 94.8569 26.5399C95.7488 26.5399 96.391 26.6915 96.7835 26.9947C97.1759 27.2802 97.3721 27.8421 97.3721 28.6805V33.9518ZM89.1307 33.9518H84.5819V26.7807C84.7781 26.7272 85.0546 26.6736 85.4114 26.6201C85.786 26.5666 86.1874 26.5399 86.6155 26.5399C87.5074 26.5399 88.1496 26.6915 88.5421 26.9947C88.9345 27.2802 89.1307 27.8421 89.1307 28.6805V33.9518ZM104.705 30.5535V33.6039H100.156V29.8578C100.156 29.3405 100.29 28.8945 100.557 28.5199C100.843 28.1275 101.208 27.7886 101.654 27.5031C102.279 27.1285 103.01 26.8431 103.848 26.6469C104.687 26.4507 105.552 26.3526 106.444 26.3526C108.388 26.3526 109.36 27.0393 109.36 28.4129C109.36 28.734 109.316 29.0373 109.227 29.3227C109.137 29.5902 109.03 29.8221 108.906 30.0184C108.727 29.9827 108.513 29.9559 108.263 29.9381C108.014 29.9203 107.737 29.9113 107.434 29.9113C106.988 29.9113 106.515 29.9649 106.016 30.0719C105.516 30.1789 105.079 30.3395 104.705 30.5535ZM100.156 32.6674H104.705V39.7047C104.508 39.7582 104.223 39.8117 103.848 39.8652C103.492 39.9187 103.099 39.9455 102.671 39.9455C101.797 39.9455 101.155 39.7939 100.744 39.4906C100.352 39.1874 100.156 38.6255 100.156 37.8049V32.6674Z" fill="#FFC542"/>
<path d="M116.482 36.4135C117.356 36.4135 117.971 36.2708 118.328 35.9854C118.685 35.6999 118.863 35.3788 118.863 35.0221C118.863 34.6653 118.72 34.3888 118.435 34.1926C118.149 33.9785 117.748 33.7823 117.231 33.6039L116.107 33.2293C115.072 32.8725 114.154 32.4979 113.351 32.1055C112.566 31.6952 111.951 31.169 111.505 30.5268C111.059 29.8846 110.836 29.0462 110.836 28.0115C110.836 26.4953 111.415 25.2822 112.575 24.3725C113.752 23.4627 115.393 23.0078 117.498 23.0078C118.533 23.0078 119.452 23.1059 120.254 23.3022C121.057 23.4984 121.69 23.8016 122.154 24.2119C122.618 24.6044 122.85 25.1128 122.85 25.7371C122.85 26.1831 122.743 26.5755 122.529 26.9145C122.315 27.2534 122.056 27.5388 121.753 27.7707C121.36 27.521 120.834 27.3069 120.174 27.1285C119.514 26.9323 118.792 26.8342 118.007 26.8342C117.204 26.8342 116.615 26.9501 116.241 27.182C115.866 27.3961 115.679 27.6726 115.679 28.0115C115.679 28.2791 115.795 28.5021 116.027 28.6805C116.276 28.841 116.624 28.9927 117.07 29.1354L118.488 29.5902C120.183 30.1254 121.476 30.8211 122.368 31.6774C123.26 32.5158 123.706 33.6485 123.706 35.0756C123.706 36.5919 123.1 37.8316 121.887 38.7949C120.691 39.7404 118.943 40.2131 116.642 40.2131C115.554 40.2131 114.573 40.0971 113.699 39.8652C112.825 39.6333 112.129 39.2855 111.612 38.8217C111.094 38.3579 110.836 37.796 110.836 37.1359C110.836 36.6186 110.987 36.1816 111.291 35.8248C111.594 35.4502 111.924 35.1648 112.281 34.9686C112.78 35.361 113.387 35.6999 114.1 35.9854C114.832 36.2708 115.625 36.4135 116.482 36.4135ZM132.532 40.1328C131.89 40.1328 131.319 40.0615 130.82 39.9187C130.338 39.776 129.883 39.6066 129.455 39.4104V35.6107C129.758 35.8426 130.106 36.0567 130.499 36.2529C130.891 36.4492 131.337 36.5473 131.837 36.5473C132.728 36.5473 133.406 36.2619 133.87 35.691C134.352 35.1023 134.593 34.255 134.593 33.149C134.593 32.382 134.495 31.7665 134.298 31.3027C134.102 30.8211 133.808 30.4643 133.415 30.2324C133.041 30.0005 132.568 29.8846 131.997 29.8846C131.658 29.8846 131.346 29.9292 131.061 30.0184C130.775 30.0897 130.534 30.1789 130.338 30.2859V38.2598H125.816V29.5635C125.816 29.0818 125.914 28.6805 126.11 28.3594C126.324 28.0383 126.61 27.7618 126.967 27.5299C127.52 27.1731 128.233 26.8877 129.107 26.6736C129.981 26.4417 130.945 26.3258 131.997 26.3258C133.442 26.3258 134.709 26.5666 135.797 27.0483C136.885 27.5121 137.732 28.2524 138.339 29.2692C138.945 30.2681 139.248 31.5614 139.248 33.149C139.248 34.6653 138.954 35.9408 138.365 36.9754C137.777 38.01 136.974 38.7949 135.957 39.3301C134.958 39.8652 133.817 40.1328 132.532 40.1328ZM130.365 37.1627V44.4943C130.169 44.5478 129.883 44.6014 129.509 44.6549C129.152 44.7084 128.759 44.7352 128.331 44.7352C127.457 44.7352 126.815 44.5835 126.405 44.2803C126.012 43.977 125.816 43.4151 125.816 42.5945V37.1627H130.365ZM154.312 34.2461H149.763V31.8647C149.763 31.1333 149.576 30.6249 149.201 30.3395C148.845 30.0362 148.399 29.8846 147.863 29.8846C147.328 29.8846 146.856 29.9827 146.445 30.1789C146.035 30.3751 145.678 30.5892 145.375 30.8211V27.1553C145.785 26.9412 146.276 26.7539 146.847 26.5934C147.417 26.415 148.042 26.3258 148.72 26.3258C150.468 26.3258 151.833 26.7718 152.814 27.6637C153.813 28.5378 154.312 29.8489 154.312 31.5971V34.2461ZM141.522 32.6674H146.071V39.7047C145.874 39.7582 145.589 39.8117 145.214 39.8652C144.858 39.9187 144.465 39.9455 144.037 39.9455C143.163 39.9455 142.521 39.7939 142.111 39.4906C141.718 39.1874 141.522 38.6255 141.522 37.8049V32.6674ZM149.763 32.6674H154.312V39.7047C154.116 39.7582 153.83 39.8117 153.456 39.8652C153.099 39.9187 152.707 39.9455 152.278 39.9455C151.404 39.9455 150.762 39.7939 150.352 39.4906C149.959 39.1874 149.763 38.6255 149.763 37.8049V32.6674ZM146.071 35.0488H141.522V22.2854C141.718 22.2319 141.995 22.1783 142.351 22.1248C142.726 22.0713 143.127 22.0446 143.555 22.0446C144.447 22.0446 145.09 22.1962 145.482 22.4994C145.874 22.7848 146.071 23.3468 146.071 24.1852V35.0488ZM159.315 35.2629L159.154 32.266L165.335 31.2492C165.3 30.8925 165.121 30.5357 164.8 30.1789C164.479 29.8221 163.979 29.6438 163.302 29.6438C162.588 29.6438 161.991 29.8757 161.509 30.3395C161.045 30.8033 160.795 31.4633 160.76 32.3195L160.92 34.5672C161.099 35.3878 161.5 35.9586 162.124 36.2797C162.766 36.6008 163.48 36.7613 164.265 36.7613C165.014 36.7613 165.728 36.6632 166.406 36.467C167.083 36.2708 167.627 36.0567 168.038 35.8248C168.323 36.0032 168.564 36.2529 168.76 36.574C168.956 36.8951 169.055 37.2341 169.055 37.5908C169.055 38.1795 168.832 38.6701 168.386 39.0625C167.957 39.4371 167.36 39.7136 166.593 39.892C165.826 40.0704 164.943 40.1596 163.944 40.1596C162.552 40.1596 161.295 39.9009 160.171 39.3836C159.065 38.8484 158.182 38.0546 157.522 37.0022C156.88 35.9497 156.559 34.6296 156.559 33.042C156.559 31.8647 156.746 30.8479 157.121 29.9916C157.513 29.1354 158.03 28.4397 158.673 27.9045C159.315 27.3693 160.028 26.9769 160.813 26.7272C161.616 26.4596 162.436 26.3258 163.275 26.3258C164.541 26.3258 165.647 26.5755 166.593 27.075C167.538 27.5567 168.279 28.2256 168.814 29.0818C169.349 29.9203 169.616 30.8925 169.616 31.9984C169.616 32.605 169.447 33.0688 169.108 33.3899C168.769 33.7109 168.296 33.9161 167.69 34.0053L159.315 35.2629ZM176.355 30.5535V33.6039H171.806V29.8578C171.806 29.3405 171.94 28.8945 172.207 28.5199C172.493 28.1275 172.858 27.7886 173.304 27.5031C173.929 27.1285 174.66 26.8431 175.499 26.6469C176.337 26.4507 177.202 26.3526 178.094 26.3526C180.038 26.3526 181.011 27.0393 181.011 28.4129C181.011 28.734 180.966 29.0373 180.877 29.3227C180.788 29.5902 180.681 29.8221 180.556 30.0184C180.377 29.9827 180.163 29.9559 179.914 29.9381C179.664 29.9203 179.387 29.9113 179.084 29.9113C178.638 29.9113 178.165 29.9649 177.666 30.0719C177.166 30.1789 176.729 30.3395 176.355 30.5535ZM171.806 32.6674H176.355V39.7047C176.159 39.7582 175.873 39.8117 175.499 39.8652C175.142 39.9187 174.749 39.9455 174.321 39.9455C173.447 39.9455 172.805 39.7939 172.395 39.4906C172.002 39.1874 171.806 38.6255 171.806 37.8049V32.6674ZM184.505 35.2629L184.344 32.266L190.525 31.2492C190.489 30.8925 190.311 30.5357 189.99 30.1789C189.669 29.8221 189.169 29.6438 188.492 29.6438C187.778 29.6438 187.18 29.8757 186.699 30.3395C186.235 30.8033 185.985 31.4633 185.95 32.3195L186.11 34.5672C186.289 35.3878 186.69 35.9586 187.314 36.2797C187.956 36.6008 188.67 36.7613 189.455 36.7613C190.204 36.7613 190.918 36.6632 191.595 36.467C192.273 36.2708 192.817 36.0567 193.228 35.8248C193.513 36.0032 193.754 36.2529 193.95 36.574C194.146 36.8951 194.244 37.2341 194.244 37.5908C194.244 38.1795 194.022 38.6701 193.576 39.0625C193.147 39.4371 192.55 39.7136 191.783 39.892C191.016 40.0704 190.133 40.1596 189.134 40.1596C187.742 40.1596 186.485 39.9009 185.361 39.3836C184.255 38.8484 183.372 38.0546 182.712 37.0022C182.07 35.9497 181.749 34.6296 181.749 33.042C181.749 31.8647 181.936 30.8479 182.311 29.9916C182.703 29.1354 183.22 28.4397 183.862 27.9045C184.505 27.3693 185.218 26.9769 186.003 26.7272C186.806 26.4596 187.626 26.3258 188.465 26.3258C189.731 26.3258 190.837 26.5755 191.783 27.075C192.728 27.5567 193.469 28.2256 194.004 29.0818C194.539 29.9203 194.806 30.8925 194.806 31.9984C194.806 32.605 194.637 33.0688 194.298 33.3899C193.959 33.7109 193.486 33.9161 192.88 34.0053L184.505 35.2629Z" fill="#5777D0"/>
<path d="M19.4996 28.2557C21.1627 20.0278 28.4493 13.8117 37.1615 13.8117C43.8768 13.8117 47.2449 16.6415 50.2432 18.8669C53.876 18.7376 57.2502 18.2565 59.2801 15.0868C55.0729 14.8522 49.8673 9 37.1615 9C24.4556 9 14.3301 19.2428 14.3301 31.8314C14.3301 33.2268 14.4564 34.5951 14.697 35.9213C14.9676 37.4069 15.3796 38.8414 15.9239 40.2127C16.2938 41.148 16.5705 41.7735 17.0577 42.6456C17.6802 40.9224 18.6395 39.1361 20.0409 37.458C19.4034 35.6146 19.1418 33.8884 19.1418 31.8314C19.1418 30.6074 19.2651 29.4105 19.4996 28.2557Z" fill="url(#paint0_angular_1075_9112)"/>
<path d="M19.4996 28.2557C21.1627 20.0278 28.4493 13.8117 37.1615 13.8117C43.8768 13.8117 47.2449 16.6415 50.2432 18.8669C53.876 18.7376 57.2502 18.2565 59.2801 15.0868C55.0729 14.8522 49.8673 9 37.1615 9C24.4556 9 14.3301 19.2428 14.3301 31.8314C14.3301 33.2268 14.4564 34.5951 14.697 35.9213C14.9676 37.4069 15.3796 38.8414 15.9239 40.2127C16.2938 41.148 16.5705 41.7735 17.0577 42.6456C17.6802 40.9224 18.6395 39.1361 20.0409 37.458C19.4034 35.6146 19.1418 33.8884 19.1418 31.8314C19.1418 30.6074 19.2651 29.4105 19.4996 28.2557Z" fill="url(#paint1_angular_1075_9112)"/>
<path d="M59.0904 25.4771C59.5716 27.125 59.8693 28.8482 59.9596 30.6225C59.9806 31.0225 59.9926 31.4255 59.9926 31.8315C59.9926 44.42 49.7498 54.6628 37.1612 54.6628C31.4774 54.6628 24.1577 49.7519 15.8906 52.2811C19.1656 47.698 22.2029 46.6875 24.0254 45.8906C25.7696 45.1839 29.6851 49.8512 37.1612 49.8512C45.0794 49.8512 51.8188 44.7207 54.2337 37.6055C54.8472 35.7921 55.181 33.8494 55.181 31.8315C55.181 31.0857 55.1358 30.3489 55.0456 29.6241C56.6666 28.5595 58.0379 27.2153 59.0904 25.4771Z" fill="url(#paint2_angular_1075_9112)"/>
<path d="M23.4004 34.5381C32.5065 10.2963 52.9621 24.4757 59.2804 15.0869C59.8488 38.5769 36.3017 23.781 23.4034 34.5381H23.4004Z" fill="#FFC542"/>
<path d="M15.8906 52.2811C22.5458 26.2019 37.1853 35.0042 50.243 31.5669C42.8901 51.2316 25.947 37.8702 15.8906 52.2811Z" fill="#5777D0"/>
<defs>
<radialGradient id="paint0_angular_1075_9112" cx="0" cy="0" r="1" gradientUnits="userSpaceOnUse" gradientTransform="translate(38.1083 31.6133) rotate(-15.3461) scale(21.9669 36.9698)">
<stop stop-color="#9FBFFF"/>
<stop offset="1" stop-color="#5777D0"/>
</radialGradient>
<radialGradient id="paint1_angular_1075_9112" cx="0" cy="0" r="1" gradientUnits="userSpaceOnUse" gradientTransform="translate(38.1083 31.6133) rotate(-35.657) scale(28.8018 28.514)">
<stop offset="0.515125" stop-color="#BED4FF"/>
<stop offset="1" stop-color="#82A0F5"/>
</radialGradient>
<radialGradient id="paint2_angular_1075_9112" cx="0" cy="0" r="1" gradientUnits="userSpaceOnUse" gradientTransform="translate(39.2202 45.0929) rotate(-178.791) scale(26.5488 30.4364)">
<stop offset="0.363" stop-color="#BED4FF"/>
<stop offset="1" stop-color="#82A0F5"/>
</radialGradient>
</defs>
</svg>
